<?xml version="1.0" standalone="no"?>
<!DOCTYPE svg PUBLIC "-//W3C//DTD SVG 20010904//EN"
 "http://www.w3.org/TR/2001/REC-SVG-20010904/DTD/svg10.dtd">
<svg version="1.0" xmlns="http://www.w3.org/2000/svg"
 width="512.000000pt" height="512.000000pt" viewBox="0 0 512.000000 512.000000"
 preserveAspectRatio="xMidYMid meet">
<metadata>
Created by potrace 1.13, written by Peter Selinger 2001-2015
</metadata>
<g transform="translate(0.000000,512.000000) scale(0.100000,-0.100000)"
fill="#000000" stroke="none">
<path d="M1498 5104 c-152 -23 -352 -100 -408 -156 -35 -35 -47 -87 -30 -128
15 -37 64 -80 91 -80 53 0 328 -121 363 -159 15 -16 11 -21 -62 -66 -203 -128
-459 -355 -609 -540 -142 -175 -282 -416 -357 -612 -174 -457 -201 -1062 -80
-1833 41 -262 37 -281 -106 -585 -135 -286 -170 -412 -170 -610 0 -119 14
-217 38 -264 24 -46 76 -74 126 -67 54 6 88 35 110 92 10 27 38 90 62 141 59
123 110 173 244 242 57 29 122 65 145 81 55 38 129 118 154 168 17 34 27 42
56 47 19 3 52 8 73 11 20 3 97 32 171 65 155 70 210 86 346 100 117 13 157 27
182 65 25 39 24 114 -3 151 -32 43 -140 127 -229 178 -136 77 -295 115 -488
115 -43 0 -86 4 -96 10 -52 27 -64 300 -23 495 49 229 150 481 257 643 108
165 274 283 543 383 56 22 105 39 108 39 4 0 4 -82 2 -182 -6 -209 -11 -229
-104 -414 -53 -105 -55 -112 -45 -150 19 -71 91 -114 159 -95 94 27 466 288
597 418 101 100 192 255 245 417 l22 68 42 -6 c22 -4 149 -9 281 -13 275 -7
318 -2 595 60 260 59 341 58 610 -6 325 -77 433 -90 528 -62 97 29 151 102
152 203 0 126 -77 205 -348 357 l-102 57 6 57 c27 249 -217 516 -697 765 -279
144 -451 198 -894 281 -300 56 -375 78 -655 183 -382 144 -560 174 -802 136z"/>
</g>
</svg>
