
 
<svg xmlns="http://www.w3.org/2000/svg" xmlns:xlink="http://www.w3.org/1999/xlink" viewBox="-2 -2 504 504" id="menu" style="transform-origin: 50% 50% 0px; transform: translate3d(0px, 0px, 0px); touch-action: none; -webkit-user-select: none;">
<style>#menu{display:block;margin:0 auto;}a{cursor:pointer;outline:none;}.item .sector{transition:all .1s linear;fill:#fff;stroke:#111;}.item:hover .sector,.item:focus .sector{fill:#eee;}.menu-trigger{fill:#EA2A55;pointer-events:auto;}.menu-trigger:hover,.menu-trigger:focus{cursor:pointer;}symbol{overflow:visible;}</style>
<g id="symbolsContainer">    <symbol class="icon icon-" id="icon-1" viewBox="0 0 89 89"><!--Replace the contents of this symbol with the content of your icon--><rect fill="none" stroke="#111" stroke-width="1" width="100%" height="100%"></rect><text fill="#222" x="50%" y="50%" dy=".3em" text-anchor="middle" font-size="1.2em">1</text></symbol>

 <symbol class="icon icon-" id="icon-2" viewBox="0 0 89 89">
 <!--Replace the contents of this symbol with the content of your icon-->
 <rect fill="none" stroke="#111" stroke-width="1" width="100%" height="100%">
 </rect><text fill="#222" x="50%" y="50%" dy=".3em" text-anchor="middle" font-size="1.2em">
 2</text></symbol>

<symbol class="icon icon-" id="icon-3" viewBox="0 0 89 89">
<!--Replace the contents of this symbol with the content of your icon--><rect fill="none" stroke="#111" stroke-width="1" width="100%" height="100%"></rect><text fill="#222" x="50%" y="50%" dy=".3em" text-anchor="middle" font-size="1.2em">3</text></symbol>
</g>


<g id="itemsContainer">
<a class="item" id="item-1" role="link" tabindex="0"
xlink:href="" xlink:title="" xlink:target="_parent" transform="matrix(1,0,0,1,0,0)"
data-svg-origin="250 250" style=""><path fill="none" stroke="#111" stroke-width="1"
class="sector" d="M250,250 l250,0 A250,250 0 0,0 125.00000000000006,33.493649053890294 z">
</path><use xlink:href="#icon-1" width="89" height="89" x="303.99835205078125" y="66.94287872314453" transform="rotate(30 348.49835205078125 111.44287872314453)"></use></a>
        <a class="item" id="item-2" role="link" tabindex="0" xlink:href="" xlink:title=""
        xlink:target="_parent" transform="matrix(-0.49999,-0.86602,0.86602,-0.49999,158.49364905389024,591.5063509461097)" data-svg-origin="250 250" style=""><path fill="none" stroke="#111" stroke-width="1" class="sector" d="M250,250 l250,0 A250,250 0 0,0 125.00000000000006,33.493649053890294 z"></path><use xlink:href="#icon-2" width="89" height="89" x="303.99835205078125" y="66.94287872314453" transform="rotate(30 348.49835205078125 111.44287872314453)"></use></a>
        <a class="item" id="item-3" role="link" tabindex="0" xlink:href="" xlink:title=""
        xlink:target="_parent" transform="matrix(-0.5,0.86602,-0.86602,-0.5,591.5063509461097,158.4936490538905)" data-svg-origin="250 250" style=""><path fill="none" stroke="#111" stroke-width="1" class="sector" d="M250,250 l250,0 A250,250 0 0,0 125.00000000000006,33.493649053890294 z"></path><use xlink:href="#icon-3" width="89" height="89" x="303.99835205078125" y="66.94287872314453" transform="rotate(30 348.49835205078125 111.44287872314453)"></use></a>
</g>
<g id="trigger" class="trigger menu-trigger" role="button">
<circle cx="250" cy="250" r="40"></circle>
 
</g>
</svg>
